HIERARCHY
ROOT Hips
{
	OFFSET 0.00 0.00 0.00
	CHANNELS 6 Xposition Yposition Zposition Yrotation Xrotation Zrotation
	JOINT LHipJoint
	{
		OFFSET	0.0000	0.0000	0.0000
		CHANNELS 3 Yrotation Xrotation Zrotation
		JOINT LeftUpLeg
		{
			OFFSET	1.0138	-0.0809	-0.0827
			CHANNELS 3 Yrotation Xrotation Zrotation
			JOINT LeftLeg
			{
				OFFSET	0.4110	-3.9095	0.3245
				CHANNELS 3 Yrotation Xrotation Zrotation
				JOINT LeftFoot
				{
					OFFSET	0.3810	-4.0555	-0.1470
					CHANNELS 3 Yrotation Xrotation Zrotation
					JOINT LeftToeBase
					{
						OFFSET	0.1396	-0.4462	1.3079
						CHANNELS 3 Yrotation Xrotation Zrotation
						End Site
						{
							OFFSET 0.0161 -0.0248 0.1809
						}
					}
				}
			}
		}
	}
	JOINT LowerBack
	{
		OFFSET	0.0000	0.7977	-0.3873
		CHANNELS 3 Yrotation Xrotation Zrotation
		JOINT Spine
		{
			OFFSET	0.0000	1.4131	0.1715
			CHANNELS 3 Yrotation Xrotation Zrotation
			JOINT Spine1
			{
				OFFSET	0.0000	1.4392	-0.1032
				CHANNELS 3 Yrotation Xrotation Zrotation
				JOINT LeftShoulder
				{
					OFFSET	0.2274	1.0382	0.4032
					CHANNELS 3 Yrotation Xrotation Zrotation
					JOINT LeftArm
					{
						OFFSET	1.4730	-0.2267	-0.0231
						CHANNELS 3 Yrotation Xrotation Zrotation
						JOINT LeftForeArm
						{
							OFFSET	1.6131	-1.8059	0.0081
							CHANNELS 3 Yrotation Xrotation Zrotation
							JOINT LeftHand
							{
								OFFSET	1.2197	-1.2423	1.6317
								CHANNELS 3 Yrotation Xrotation Zrotation
								JOINT LThumb
								{
									OFFSET	0.0109	-0.0753	0.4387
									CHANNELS 3 Yrotation Xrotation Zrotation
									End Site
									{
										OFFSET -0.2090 -0.0868 0.2097
									}
								}
								JOINT LeftFingerBase
								{
									OFFSET	0.1071	-0.1567	0.2607
									CHANNELS 3 Yrotation Xrotation Zrotation
									JOINT LeftHandFinger1
									{
										OFFSET	0.1706	-0.2492	0.6830
										CHANNELS 3 Yrotation Xrotation Zrotation
										End Site
										{
											OFFSET 0.0335 -0.1507 0.2071
										}
									}
								}
							}
						}
					}
				}
				JOINT Neck
				{
					OFFSET	0.0000	1.7498	0.2381
					CHANNELS 3 Yrotation Xrotation Zrotation
					JOINT Neck1
					{
						OFFSET	0.0000	0.5043	0.1959
						CHANNELS 3 Yrotation Xrotation Zrotation
						JOINT Head
						{
							OFFSET	0.0000	0.5044	0.1959
							CHANNELS 3 Yrotation Xrotation Zrotation
							End Site
							{
								OFFSET 0.0000 1.4798 -0.0693
							}
						}
					}
				}
				JOINT RightShoulder
				{
					OFFSET	-0.2274	1.0382	0.4032
					CHANNELS 3 Yrotation Xrotation Zrotation
					JOINT RightArm
					{
						OFFSET	-1.4730	-0.2267	-0.0231
						CHANNELS 3 Yrotation Xrotation Zrotation
						JOINT RightForeArm
						{
							OFFSET	-1.6131	-1.8059	0.0081
							CHANNELS 3 Yrotation Xrotation Zrotation
							JOINT RightHand
							{
								OFFSET	-1.2197	-1.2423	1.6317
								CHANNELS 3 Yrotation Xrotation Zrotation
								JOINT RThumb
								{
									OFFSET	-0.0109	-0.0753	0.4387
									CHANNELS 3 Yrotation Xrotation Zrotation
									End Site
									{
										OFFSET 0.2090 -0.0868 0.2097
									}
								}
								JOINT RightFingerBase
								{
									OFFSET	-0.1071	-0.1567	0.2607
									CHANNELS 3 Yrotation Xrotation Zrotation
									JOINT RightHandFinger1
									{
										OFFSET	-0.1706	-0.2492	0.6830
										CHANNELS 3 Yrotation Xrotation Zrotation
										End Site
										{
											OFFSET -0.0335 -0.1507 0.2071
										}
									}
								}
							}
						}
					}
				}
			}
		}
	}
	JOINT RHipJoint
	{
		OFFSET	0.0000	0.0000	0.0000
		CHANNELS 3 Yrotation Xrotation Zrotation
		JOINT RightUpLeg
		{
			OFFSET	-1.0138	-0.0809	-0.0827
			CHANNELS 3 Yrotation Xrotation Zrotation
			JOINT RightLeg
			{
				OFFSET	-0.4110	-3.9095	0.3245
				CHANNELS 3 Yrotation Xrotation Zrotation
				JOINT RightFoot
				{
					OFFSET	-0.3810	-4.0555	-0.1470
					CHANNELS 3 Yrotation Xrotation Zrotation
					JOINT RightToeBase
					{
						OFFSET	-0.1396	-0.4462	1.3079
						CHANNELS 3 Yrotation Xrotation Zrotation
						End Site
						{
							OFFSET -0.0161 -0.0248 0.1809
						}
					}
				}
			}
		}
	}
}
MOTION
Frames: 5
Frame Time: 0.0333333
-0.4419 8.2539 -0.5275 -6.6280 28.1529 -6.9854 0.0000 -0.0000 0.0000 9.5142 -9.3980 -0.4480 15.0069 59.1023 11.2460 0.3319 -3.3426 -2.7247 0.0000 -5.5891 0.0000 0.0000 -0.0000 0.0000 0.9504 5.1473 1.6781 2.4833 10.2516 3.6705 22.1168 -1.3395 4.0660 -65.5821 -25.6662 25.8415 -36.1121 10.3765 7.6917 33.7347 -23.0347 62.8327 18.3745 -3.9691 6.4794 -17.9874 27.4617 -20.1964 -1.1835 -10.0230 1.6481 -2.0229 -5.7320 7.4109 -2.0229 -5.7320 7.4109 3.5409 -2.3538 -11.0764 -0.5631 0.2123 -7.7072 45.1901 -21.6644 -27.5597 48.1756 7.3466 -10.4956 -21.7355 -33.1587 -77.3066 -24.8650 -9.8130 6.3044 2.9178 24.5391 10.1707 15.7604 4.1008 9.9721 0.0000 -0.0000 0.0000 1.7922 -42.2228 14.6525 -18.1408 47.6926 -9.9233 0.1237 -36.2433 -5.0201 0.0000 -2.5388 -0.0000 
-0.4265 8.3214 -0.5154 -8.9225 27.4830 -7.9739 0.0000 -0.0000 0.0000 9.2143 -15.4246 0.1582 25.5037 66.8853 19.7194 0.1122 -8.4464 -1.0530 -0.0000 -5.4883 0.0000 0.0000 -0.0000 0.0000 1.3143 5.4550 2.0649 3.1606 10.8668 3.8822 22.1359 -1.3592 4.1552 -62.9902 -25.3285 24.4544 -36.9227 10.1548 7.8604 34.2836 -23.6946 62.1672 18.4962 -3.7626 6.6741 -18.5176 27.6052 -20.6557 -1.2060 -9.9951 1.6308 -1.9633 -5.5875 7.3851 -1.9634 -5.5876 7.3851 4.0502 -2.6022 -12.7658 -0.2254 0.2338 -7.5983 47.6634 -20.3522 -29.1213 46.4471 7.7431 -10.0573 -21.7700 -33.5631 -76.8595 -24.8354 -9.7787 6.3251 3.0968 24.6559 10.3161 15.7614 4.1016 9.9730 0.0000 -0.0000 0.0000 2.6363 -39.5247 15.0707 -17.2727 45.1228 -9.6225 1.6488 -35.5866 -5.1623 0.0000 -2.4372 -0.0000 
-0.4039 8.3947 -0.4962 -11.3120 27.0929 -8.9910 0.0000 -0.0000 0.0000 8.8924 -21.9958 1.0775 36.2168 72.6094 29.3920 -0.2299 -13.3541 1.2343 0.0000 -5.0693 -0.0000 0.0000 -0.0000 0.0000 1.6471 5.7576 2.3544 3.7265 11.4801 3.9431 22.0528 -1.3675 4.2266 -60.2567 -25.0399 23.2855 -37.8343 9.9085 8.0536 34.9013 -24.5256 61.7880 18.6828 -3.4252 6.9873 -19.3927 27.9316 -21.4917 -1.2209 -9.9767 1.6194 -1.8782 -5.8434 7.3846 -1.8782 -5.8436 7.3846 4.6208 -2.2990 -13.9740 0.0796 0.2474 -7.4840 50.2899 -19.3306 -30.5588 44.6733 8.1637 -9.6195 -21.7650 -33.8406 -76.5553 -24.8147 -9.7880 6.3438 3.1770 24.6754 10.3519 15.7655 4.1047 9.9764 0.0000 -0.0000 0.0000 3.4181 -36.9297 15.3668 -16.1666 42.1670 -9.0675 3.1573 -34.6855 -5.3917 0.0000 -2.4266 -0.0000 
-0.3798 8.4638 -0.4634 -13.6131 27.0641 -9.8233 0.0000 -0.0000 0.0000 8.4911 -29.1252 1.9626 46.6328 75.3761 39.3530 -1.0468 -17.5305 2.1619 0.0000 -4.6892 0.0000 0.0000 -0.0000 0.0000 1.9593 5.9922 2.4560 4.2015 11.9625 3.7814 22.1155 -1.3899 4.4064 -57.7156 -24.8121 22.3368 -38.7185 9.6725 8.2446 35.3497 -25.7133 61.8268 18.8865 -3.0620 7.3320 -20.3601 28.3161 -22.4462 -1.2250 -9.9716 1.6163 -1.7983 -6.5984 7.4865 -1.7983 -6.5985 7.4865 5.2506 -1.0362 -14.9315 0.1612 0.2440 -7.3902 52.6966 -18.6257 -31.8748 43.3796 8.4791 -9.3082 -21.8351 -34.0537 -76.1099 -24.8470 -9.8123 6.3223 3.1057 24.6245 10.2745 15.7759 4.1131 9.9851 0.0000 -0.0000 0.0000 4.0474 -34.5279 15.3868 -13.4493 39.3149 -7.4210 3.4052 -33.8748 -5.5004 0.0000 -2.4216 -0.0000 
-0.3571 8.5315 -0.4141 -15.8430 27.2022 -10.4620 0.0000 -0.0000 0.0000 7.9051 -36.4309 2.9462 48.8330 76.1568 41.6016 -1.3503 -20.3137 2.5076 -0.0000 -4.1736 0.0000 0.0000 -0.0000 0.0000 2.2681 6.2288 2.4236 4.6061 12.4531 3.4580 22.4133 -1.4402 4.7548 -55.0701 -24.8254 21.3431 -40.0485 9.3231 8.5386 35.7027 -26.9177 61.9828 18.9581 -2.9514 7.4443 -20.9045 28.5731 -23.0161 -1.2171 -9.9814 1.6224 -1.7155 -7.7514 7.6919 -1.7155 -7.7515 7.6919 6.0150 0.7834 -16.2088 -0.2731 0.2128 -7.3381 54.9759 -18.2094 -33.3096 42.7762 8.6286 -9.1653 -22.1002 -34.2790 -75.4101 -24.9250 -9.8229 6.2631 2.9538 24.5839 10.1714 15.7887 4.1233 9.9959 0.0000 -0.0000 0.0000 4.4412 -32.1081 15.2065 -10.4634 36.3083 -5.7111 3.2339 -33.3304 -5.3032 -0.0000 -1.8745 -0.0000 
